<svg xmlns="http://www.w3.org/2000/svg" version="1.1" xmlns:xlink="http://www.w3.org/1999/xlink" xmlns:svgjs="http://svgjs.dev/svgjs" width="1000" height="1000"><style>
    #light-icon {
      display: inline;
    }
    #dark-icon {
      display: none;
    }

    @media (prefers-color-scheme: dark) {
      #light-icon {
        display: none;
      }
      #dark-icon {
        display: inline;
      }
    }
  </style><g id="light-icon"><svg xmlns="http://www.w3.org/2000/svg" version="1.1" xmlns:xlink="http://www.w3.org/1999/xlink" xmlns:svgjs="http://svgjs.dev/svgjs" width="1000" height="1000"><g clip-path="url(#SvgjsClipPath1294)"><rect width="1000" height="1000" fill="#000000"></rect><g transform="matrix(2.857142857142857,0,0,2.857142857142857,200,235.71428571428572)"><svg xmlns="http://www.w3.org/2000/svg" version="1.1" xmlns:xlink="http://www.w3.org/1999/xlink" xmlns:svgjs="http://svgjs.dev/svgjs" width="210" height="185"><svg width="210" height="185" xmlns="http://www.w3.org/2000/svg" version="1.1">

 <g>
  <title>Layer 1</title>
  <path fill="#ffffff" id="svg_3" d="m81.83931,147.20939a0.72768,0.72768 5.1226207243606074 0 1 0.18668,-2.04778l0,0a4.19205,4.19205 28.901204848872002 0 1 2.34901,11.23876l-32.40105,15.98486a4.0441,4.0441 -11.048233338405176 0 0 4.03051,10.64761l50.92725,-13.84657a6.76867,6.76867 -22.975592234827438 0 0 -1.21764,-18.72136l-23.87475,-3.25552zm-35.81072,-47.42707a0.72768,0.72768 5.122620724360149 0 1 1.86605,-0.86196l0,0a4.19205,4.19205 28.901204848913235 0 1 -8.55882,7.65372l-30.04285,-20.0684a4.0441,4.0441 -11.048233338415889 0 0 -7.20683,8.81479l37.45545,37.18109a6.76867,6.76867 -22.975592234857498 0 0 15.60443,-10.41568l-9.11744,-22.30356zm23.16694,-54.72795a0.72768,0.72768 5.122620724344437 0 1 1.68009,1.18653l0,0a4.19205,4.19205 28.901204848919544 0 1 -10.90783,-3.58503l2.3582,-36.05326a4.0441,4.0441 -11.048233338414095 0 0 -11.23734,-1.83282l-13.4718,51.02766a6.76867,6.76867 -22.975592234849888 0 0 16.82207,8.30568l14.75661,-19.04875zm58.97907,-7.29946a0.72768,0.72768 5.122620724360614 0 1 -0.18668,2.04778l0,0a4.19205,4.19205 28.901204848872016 0 1 -2.34901,-11.23876l32.40105,-15.98486a4.0441,4.0441 -11.048233338405172 0 0 -4.03051,-10.64761l-50.92725,13.84657a6.76867,6.76867 -22.975592234827445 0 0 1.21764,18.72136l23.87475,3.25552zm35.81072,47.42707a0.72768,0.72768 5.122620724360149 0 1 -1.86605,0.86196l0,0a4.19205,4.19205 28.901204848913235 0 1 8.55882,-7.65372l30.04285,20.0684a4.0441,4.0441 -11.048233338415889 0 0 7.20683,-8.81479l-37.45545,-37.18109a6.76867,6.76867 -22.975592234857498 0 0 -15.60443,10.41568l9.11744,22.30356zm-23.16694,54.72795a0.72768,0.72768 5.122620724344425 0 1 -1.68009,-1.18653l0,0a4.19205,4.19205 28.90120484891954 0 1 10.90783,3.58503l-2.3582,36.05326a4.0441,4.0441 -11.048233338414082 0 0 11.23734,1.83282l13.4718,-51.02766a6.76867,6.76867 -22.975592234849884 0 0 -16.82207,-8.30568l-14.75661,19.04875z"></path>
 </g>
</svg></svg></g></g><defs><clipPath id="SvgjsClipPath1294"><rect width="1000" height="1000" x="0" y="0" rx="300" ry="300"></rect></clipPath></defs></svg></g><g id="dark-icon"><svg xmlns="http://www.w3.org/2000/svg" version="1.1" xmlns:xlink="http://www.w3.org/1999/xlink" xmlns:svgjs="http://svgjs.dev/svgjs" width="1000" height="1000"><g clip-path="url(#SvgjsClipPath1295)"><rect width="1000" height="1000" fill="#ffffff"></rect><g transform="matrix(2.857142857142857,0,0,2.857142857142857,200,235.71428571428572)"><svg xmlns="http://www.w3.org/2000/svg" version="1.1" xmlns:xlink="http://www.w3.org/1999/xlink" xmlns:svgjs="http://svgjs.dev/svgjs" width="210" height="185"><svg width="210" height="185" xmlns="http://www.w3.org/2000/svg" version="1.1">

 <g>
  <title>Layer 1</title>
  <path id="svg_3" d="m81.83931,147.20939a0.72768,0.72768 5.1226207243606074 0 1 0.18668,-2.04778l0,0a4.19205,4.19205 28.901204848872002 0 1 2.34901,11.23876l-32.40105,15.98486a4.0441,4.0441 -11.048233338405176 0 0 4.03051,10.64761l50.92725,-13.84657a6.76867,6.76867 -22.975592234827438 0 0 -1.21764,-18.72136l-23.87475,-3.25552zm-35.81072,-47.42707a0.72768,0.72768 5.122620724360149 0 1 1.86605,-0.86196l0,0a4.19205,4.19205 28.901204848913235 0 1 -8.55882,7.65372l-30.04285,-20.0684a4.0441,4.0441 -11.048233338415889 0 0 -7.20683,8.81479l37.45545,37.18109a6.76867,6.76867 -22.975592234857498 0 0 15.60443,-10.41568l-9.11744,-22.30356zm23.16694,-54.72795a0.72768,0.72768 5.122620724344437 0 1 1.68009,1.18653l0,0a4.19205,4.19205 28.901204848919544 0 1 -10.90783,-3.58503l2.3582,-36.05326a4.0441,4.0441 -11.048233338414095 0 0 -11.23734,-1.83282l-13.4718,51.02766a6.76867,6.76867 -22.975592234849888 0 0 16.82207,8.30568l14.75661,-19.04875zm58.97907,-7.29946a0.72768,0.72768 5.122620724360614 0 1 -0.18668,2.04778l0,0a4.19205,4.19205 28.901204848872016 0 1 -2.34901,-11.23876l32.40105,-15.98486a4.0441,4.0441 -11.048233338405172 0 0 -4.03051,-10.64761l-50.92725,13.84657a6.76867,6.76867 -22.975592234827445 0 0 1.21764,18.72136l23.87475,3.25552zm35.81072,47.42707a0.72768,0.72768 5.122620724360149 0 1 -1.86605,0.86196l0,0a4.19205,4.19205 28.901204848913235 0 1 8.55882,-7.65372l30.04285,20.0684a4.0441,4.0441 -11.048233338415889 0 0 7.20683,-8.81479l-37.45545,-37.18109a6.76867,6.76867 -22.975592234857498 0 0 -15.60443,10.41568l9.11744,22.30356zm-23.16694,54.72795a0.72768,0.72768 5.122620724344425 0 1 -1.68009,-1.18653l0,0a4.19205,4.19205 28.90120484891954 0 1 10.90783,3.58503l-2.3582,36.05326a4.0441,4.0441 -11.048233338414082 0 0 11.23734,1.83282l13.4718,-51.02766a6.76867,6.76867 -22.975592234849884 0 0 -16.82207,-8.30568l-14.75661,19.04875z"></path>
 </g>
</svg></svg></g></g><defs><clipPath id="SvgjsClipPath1295"><rect width="1000" height="1000" x="0" y="0" rx="300" ry="300"></rect></clipPath></defs></svg></g></svg>